<?xml version="1.0" encoding="UTF-8" standalone="no"?>
<!-- Created with Inkscape (http://www.inkscape.org/) -->

<svg
   xmlns:dc="http://purl.org/dc/elements/1.1/"
   xmlns:cc="http://creativecommons.org/ns#"
   xmlns:rdf="http://www.w3.org/1999/02/22-rdf-syntax-ns#"
   xmlns:svg="http://www.w3.org/2000/svg"
   xmlns="http://www.w3.org/2000/svg"
   version="1.1"
   width="159.99918"
   height="160.00084"
   id="svg2985"
   style="enable-background:new">
  <defs
     id="defs2987" />
  <metadata
     id="metadata2991">
    <rdf:RDF>
      <cc:Work
         rdf:about="">
        <dc:format>image/svg+xml</dc:format>
        <dc:type
           rdf:resource="http://purl.org/dc/dcmitype/StillImage" />
        <dc:title></dc:title>
      </cc:Work>
    </rdf:RDF>
  </metadata>
  <g
     transform="translate(-157.4827,-417.30233)"
     id="layer3">
    <path
       d="m 159.02794,418.93327 122.32143,-0.0857 34.58726,156.91035 -156.90869,0 z"
       id="rect4174"
       style="fill:none;stroke:#115f89;stroke-width:3.09048557;stroke-linecap:round;stroke-linejoin:round;stroke-miterlimit:4;stroke-opacity:1;stroke-dasharray:none" />
  </g>
  <g
     transform="translate(-157.4827,-417.30233)"
     id="layer1"
     style="display:inline">
    <g
       transform="matrix(0,-1,1,0,-195.39183,25.617632)"
       id="text2994-6-0"
       style="font-size:24px;font-style:normal;font-variant:normal;font-weight:normal;font-stretch:normal;line-height:125%;letter-spacing:0px;word-spacing:0px;fill:#115f89;fill-opacity:1;stroke:none;font-family:DejaVu Serif;-inkscape-font-specification:DejaVu Serif">
      <path
         d="m -541.27564,473.10504 0,-100.512 30.672,0 0,100.512 -30.672,0 m 38.592,0 0,-25.2 26.64,0 0,25.2 -26.64,0"
         id="path3129"
         style="font-size:144px;fill:#115f89;fill-opacity:1;font-family:Aldo;-inkscape-font-specification:Aldo" />
    </g>
    <g
       transform="translate(-45.66803,133.51233)"
       id="text2994-8-4-9"
       style="font-size:24px;font-style:normal;font-variant:normal;font-weight:normal;font-stretch:normal;line-height:125%;letter-spacing:0px;word-spacing:0px;fill:#115f89;fill-opacity:1;stroke:none;font-family:DejaVu Serif;-inkscape-font-specification:DejaVu Serif">
      <path
         d="m 222.86924,394.77285 0,-100.368 30.672,0 0,72.576 c -6.43203,-0.95997 -12.19202,-3.69597 -17.28,-8.208 l -5.472,5.616 c 6.81598,6.04803 14.39997,9.40802 22.752,10.08 l 0,20.304 -30.672,0 m 38.592,-27.36 0,-73.008 c 9.50395,0.4801 17.61594,4.2721 24.336,11.376 6.81593,7.00808 10.22392,15.26408 10.224,24.768 -8e-5,9.88806 -3.40807,18.38405 -10.224,25.488 -6.72006,7.10403 -14.83205,10.89603 -24.336,11.376"
         id="path3153"
         style="font-size:144px;fill:#115f89;fill-opacity:1;font-family:Aldo;-inkscape-font-specification:Aldo" />
    </g>
    <g
       transform="matrix(0.73302108,0,0,0.53053753,10.613395,231.05732)"
       id="text2994-8-6-0-6"
       style="font-size:24px;font-style:normal;font-variant:normal;font-weight:normal;font-stretch:normal;line-height:125%;letter-spacing:0px;word-spacing:0px;fill:#ff3300;fill-opacity:1;stroke:none;font-family:DejaVu Serif;-inkscape-font-specification:DejaVu Serif">
      <path
         d="m 329.67459,491.86751 0,-47.592 13.032,47.592 -13.032,0 m 3.6,-50.184 15.048,0 13.104,50.184 -14.76,0 -13.392,-50.184 m 18.936,0 12.24,0 0,46.008 -12.24,-46.008"
         id="path3187"
         style="font-size:72px;fill:#ff3300;fill-opacity:1;font-family:Aldo;-inkscape-font-specification:Aldo" />
    </g>
  </g>
</svg>
